<?xml version="1.0" encoding="UTF-8" standalone="no"?>
<!-- Created with Inkscape (http://www.inkscape.org/) -->

<svg
   xmlns:dc="http://purl.org/dc/elements/1.1/"
   xmlns:cc="http://creativecommons.org/ns#"
   xmlns:rdf="http://www.w3.org/1999/02/22-rdf-syntax-ns#"
   xmlns:svg="http://www.w3.org/2000/svg"
   xmlns="http://www.w3.org/2000/svg"
   xmlns:sodipodi="http://sodipodi.sourceforge.net/DTD/sodipodi-0.dtd"
   xmlns:inkscape="http://www.inkscape.org/namespaces/inkscape"
   width="1000"
   height="1000"
   id="svg2985"
   version="1.1"
   inkscape:version="0.48.4 r9939"
   sodipodi:docname="Новый документ 2">
  <defs
     id="defs5498" />
  <sodipodi:namedview
     inkscape:window-height="618"
     inkscape:window-width="1021"
     inkscape:pageshadow="2"
     inkscape:pageopacity="0.0"
     borderopacity="1.0"
     bordercolor="#666666"
     pagecolor="#ffffff"
     id="base"
     showgrid="false"
     showguides="true"
     inkscape:guide-bbox="true"
     inkscape:zoom="0.32102648"
     inkscape:cx="388.69151"
     inkscape:cy="549.26769"
     inkscape:window-x="0"
     inkscape:window-y="25"
     inkscape:current-layer="layer1"
     inkscape:window-maximized="0">
    <sodipodi:guide
       orientation="horizontal"
       position="200"
       id="guide5596" />
  </sodipodi:namedview>
  <metadata
     id="metadata5594">
    <rdf:RDF>
      <cc:Work
         rdf:about="">
        <dc:format>image/svg+xml</dc:format>
        <dc:type
           rdf:resource="http://purl.org/dc/dcmitype/StillImage" />
        <dc:title></dc:title>
      </cc:Work>
    </rdf:RDF>
  </metadata>
  <g
     inkscape:label="Layer 1"
     inkscape:groupmode="layer"
     id="layer1">
    <path
       inkscape:connector-curvature="0"
       id="path2170"
       sodipodi:nodetypes="ccczcscscczzcczccccccsszcczzzzczccsccssssc"
       style="fill:#000000"
       d="M 489.32482,984.60279 C 355.57827,941.83409 281.62753,809.82265 336.65928,676.4584 c 27.42764,-58.49207 -51.91453,-14.50784 -79.00889,-13.95889 12.04739,-22.51656 15.21362,-32.27013 9.0576,-41.46496 -6.15603,-9.19483 -32.70145,-7.75385 -55.51991,-15.37047 16.10761,-14.23336 52.73597,-12.61593 55.82379,-35.40695 2.98979,-21.99701 -39.21625,-12.77278 -57.01187,-28.91765 15.73022,-8.56746 56.79621,-4.47978 64.54026,-30.16257 5.89136,-19.52675 -31.68198,-39.08293 -32.27013,-53.08103 48.60124,23.97714 83.76313,21.53629 116.02346,-10.18489 1.45078,0.0882 3.68578,4.38176 9.32226,27.08456 5.6463,22.7028 15.72337,38.51438 40.4455,28.3785 24.71233,-10.13588 31.03501,-15.19401 -0.72539,-45.45461 -65.88322,-68.42209 -49.30704,-151.76371 13.50797,-227.63577 12.38067,-12.23363 -14.21376,-27.17278 -26.36897,-34.65215 -12.15522,-7.47939 -11.27299,-9.88102 -10.23391,-14.50784 27.56489,-19.50716 41.14148,-26.73167 25.3397,-66.42921 13.10607,-6.54422 28.28047,-1.36061 41.02385,-9.93591 15.77236,-7.504863 3.97985,-34.529626 12.39047,-43.265695 15.02737,1.382165 21.80096,18.983698 37.4753,17.681913 19.49736,-3.693616 40.05339,-35.644181 53.62017,-27.076716 -1.40176,9.250705 -4.48958,18.91606 2.45065,20.408014 11.48864,2.470253 38.90649,-14.384322 42.70989,-9.79965 3.12702,3.766155 -20.93833,26.747349 7.31273,26.630699 28.25107,-0.116651 54.53181,30.147865 61.46225,60.300625 12.70416,64.12856 55.22779,103.39773 105.24061,142.83356 21.86958,14.58625 20.32077,26.67284 6.72458,37.54392 -13.5962,10.86128 -36.13235,11.04752 -55.60029,-2.75453 -19.46795,-13.81185 -28.64317,-15.21362 -73.71549,-19.05624 -45.07231,-3.84261 -58.39403,-8.35181 -69.67682,-16.61538 -11.28278,-8.26359 -19.50715,-33.36802 -19.57577,-39.88675 -0.0784,-6.50891 -11.05733,12.75317 -19.05623,29.30975 -8.00872,16.56637 -3.22506,31.54473 61.59948,68.97103 64.7167,33.67189 118.15063,75.99948 120.7091,151.08734 -0.0491,51.14991 -26.59443,103.93686 -133.62891,143.06881 -121.48352,44.41553 -176.2702,144.08827 -88.67425,244.73148 59.86442,56.05116 148.00933,25.06522 149.24445,-57.10989 -3.20545,-53.74761 -57.43338,-76.8033 -93.105,-26.18272 -17.69368,25.08482 -27.78055,22.29109 -22.26169,-5.09735 6.85201,-33.99539 49.55209,-58.6587 91.50718,-56.47273 71.97063,3.75439 95.62428,71.72556 76.27397,131.74682 -30.59389,94.93805 -124.70857,128.51193 -214.70616,108.84792 z" />
  </g>
</svg>
